HIERARCHY
ROOT Hips
{
 OFFSET 0.000000 0.000000 0.000000
 CHANNELS 6 Xposition Yposition Zposition Yrotation Xrotation Zrotation
 JOINT Chest
 {
  OFFSET 0.000000 9.585900 0.002600
  CHANNELS 3 Yrotation Xrotation Zrotation
  JOINT Chest2
  {
   OFFSET 0.000000 9.601200 -0.005300
   CHANNELS 3 Yrotation Xrotation Zrotation
   JOINT Chest3
   {
    OFFSET 0.000000 9.561800 0.000000
    CHANNELS 3 Yrotation Xrotation Zrotation
    JOINT Chest4
    {
     OFFSET 0.000000 9.552100 0.000000
     CHANNELS 3 Yrotation Xrotation Zrotation
     JOINT Neck
     {
      OFFSET 0.000000 14.453000 0.000000
      CHANNELS 3 Yrotation Xrotation Zrotation
      JOINT Head
      {
       OFFSET 0.000000 8.936500 -0.011300
       CHANNELS 3 Yrotation Xrotation Zrotation
       End Site
       {
        OFFSET 0.000000 17.073600 -0.006000
       }
      }
     }
     JOINT RightCollar
     {
      OFFSET -2.921100 9.558500 0.000000
      CHANNELS 3 Yrotation Xrotation Zrotation
      JOINT RightShoulder
      {
       OFFSET -13.519700 0.000000 0.000000
       CHANNELS 3 Yrotation Xrotation Zrotation
       JOINT RightElbow
       {
        OFFSET 0.000000 -29.696600 0.000000
        CHANNELS 3 Yrotation Xrotation Zrotation
        JOINT RightWrist
        {
         OFFSET 0.000000 -24.004700 0.000000
         CHANNELS 3 Yrotation Xrotation Zrotation
         End Site
         {
          OFFSET 0.000000 -17.728500 0.000000
         }
        }
       }
      }
     }
     JOINT LeftCollar
     {
      OFFSET 2.921100 9.558500 0.000000
      CHANNELS 3 Yrotation Xrotation Zrotation
      JOINT LeftShoulder
      {
       OFFSET 13.519700 0.000000 0.000000
       CHANNELS 3 Yrotation Xrotation Zrotation
       JOINT LeftElbow
       {
        OFFSET 0.000000 -29.696600 0.000000
        CHANNELS 3 Yrotation Xrotation Zrotation
        JOINT LeftWrist
        {
         OFFSET 0.000000 -24.004700 0.000000
         CHANNELS 3 Yrotation Xrotation Zrotation
         End Site
         {
          OFFSET 0.000000 -17.728500 0.000000
         }
        }
       }
      }
     }
    }
   }
  }
 }
 JOINT RightHip
 {
  OFFSET -7.771700 -0.012900 -0.001300
  CHANNELS 3 Yrotation Xrotation Zrotation
  JOINT RightKnee
  {
   OFFSET 0.000000 -40.869800 0.001200
   CHANNELS 3 Yrotation Xrotation Zrotation
   JOINT RightAnkle
   {
    OFFSET 0.000000 -39.717900 0.002100
    CHANNELS 3 Yrotation Xrotation Zrotation
    JOINT RightToe
    {
     OFFSET 0.000000 -4.965400 11.033500
     CHANNELS 3 Yrotation Xrotation Zrotation
     End Site
     {
      OFFSET 0.000000 -1.423100 5.872300
     }
    }
   }
  }
 }
 JOINT LeftHip
 {
  OFFSET 7.771700 -0.012900 -0.001300
  CHANNELS 3 Yrotation Xrotation Zrotation
  JOINT LeftKnee
  {
   OFFSET 0.000000 -40.869800 0.001200
   CHANNELS 3 Yrotation Xrotation Zrotation
   JOINT LeftAnkle
   {
    OFFSET 0.000000 -39.717900 0.002100
    CHANNELS 3 Yrotation Xrotation Zrotation
    JOINT LeftToe
    {
     OFFSET 0.000000 -4.965400 11.033500
     CHANNELS 3 Yrotation Xrotation Zrotation
     End Site
     {
      OFFSET 0.000000 -1.423100 5.872300
     }
    }
   }
  }
 }
}
MOTION
Frames: 12
Frame Time: 0.008333
-48.897155 61.971731 14.244230 176.532013 -52.582437 0.247707 3.604195 27.577748 0.610529 0.547788 4.751943 0.096663 0.872002 7.507382 0.182853 2.744517 22.139084 0.912060 -0.011007 16.949594 2.906616 -1.010290 -4.276265 5.369736 5.464105 5.478076 5.215622 0.914511 -12.883853 -13.961558 -137.274031 -57.722152 167.577495 20.799896 -0.397548 -23.875418 -9.846671 1.451615 -0.978417 -8.574870 -10.372044 19.492175 132.722933 -68.220424 -159.846794 5.312410 -7.305013 24.235737 4.368819 -14.093970 -7.059620 3.749325 60.752412 -0.716760 1.263243 -5.408512 11.352618 0.052245 0.096825 -0.024151 0.148563 -4.833426 6.566003 127.721585 83.716867 136.703509 -5.936381 -12.434450 -11.298131 0.071564 -24.979050 0.210229
-48.884993 61.974633 14.234404 176.539566 -52.573659 0.250626 3.597024 27.564357 0.608198 0.547172 4.744357 0.101836 0.867543 7.512275 0.175774 2.744043 22.136548 0.911670 -0.010098 16.950136 2.901431 -1.000256 -4.303843 5.358071 5.464483 5.486344 5.212039 0.916320 -12.885295 -13.951589 -137.283982 -57.722532 167.582488 20.799001 -0.399985 -23.875262 -9.847598 1.444188 -0.978466 -8.566399 -10.370463 19.481084 132.725856 -68.227508 -159.854693 5.320557 -7.310783 24.227340 4.362490 -14.108410 -7.062586 3.755385 60.792281 -0.707062 1.259616 -5.510930 11.366966 0.054976 0.108031 -0.038337 0.147975 -4.830899 6.576984 127.798853 83.728753 136.769625 -5.918162 -12.452507 -11.286971 0.056159 -24.966353 0.205536
-48.875419 61.978540 14.223609 176.546222 -52.570410 0.260358 3.590231 27.556314 0.602033 0.544113 4.746883 0.097536 0.867466 7.506091 0.177732 2.744278 22.134143 0.912095 -0.007837 16.941357 2.896266 -1.003733 -4.302056 5.354918 5.459377 5.496246 5.207301 0.918823 -12.886135 -13.939789 -137.296159 -57.723207 167.590467 20.801444 -0.398220 -23.875816 -9.852044 1.452679 -0.984087 -8.559875 -10.383264 19.477427 132.720939 -68.236016 -159.855824 5.321312 -7.320828 24.225809 4.357052 -14.116844 -7.078870 3.789922 60.833562 -0.664590 1.245027 -5.614185 11.375192 0.063444 0.072211 -0.036178 0.147869 -4.821276 6.578239 127.845774 83.746937 136.812729 -5.919599 -12.464558 -11.286623 0.058108 -24.960195 0.211183
-48.869349 61.981638 14.213278 176.569916 -52.559181 0.268405 3.565455 27.541531 0.578367 0.543642 4.749368 0.097412 0.877479 7.489724 0.186197 2.734208 22.144653 0.906300 -0.008743 16.931266 2.891809 -1.008350 -4.302081 5.352970 5.450782 5.502922 5.201712 0.935197 -12.882449 -13.921957 -137.334900 -57.719787 167.619461 20.805263 -0.389897 -23.882274 -9.856360 1.449937 -0.987821 -8.556970 -10.387154 19.473264 132.699311 -68.239918 -159.827312 5.317188 -7.336684 24.224208 4.334210 -14.138869 -7.109113 3.819850 60.883044 -0.634240 1.240666 -5.707410 11.378138 0.067110 0.049856 -0.032979 0.135864 -4.825537 6.555280 127.844142 83.752252 136.810073 -5.916114 -12.462729 -11.288723 0.051490 -24.964325 0.214131
-48.863570 61.986198 14.201908 176.580697 -52.557121 0.281054 3.548864 27.538747 0.556203 0.547194 4.741540 0.101449 0.875862 7.493901 0.183147 2.739685 22.134848 0.908369 -0.006994 16.906967 2.881508 -1.018204 -4.299314 5.353916 5.445858 5.513087 5.199751 0.940416 -12.880525 -13.906374 -137.362907 -57.722777 167.632534 20.804499 -0.394599 -23.883310 -9.853257 1.450666 -0.992722 -8.566155 -10.379246 19.473114 132.686149 -68.241751 -159.812871 5.302719 -7.347586 24.248187 4.311856 -14.161519 -7.133093 3.855387 60.942950 -0.601072 1.241251 -5.772381 11.365988 0.066544 0.043038 -0.030387 0.131552 -4.817444 6.546049 127.865326 83.764942 136.821601 -5.914463 -12.465122 -11.283439 0.041393 -24.965375 0.219328
-48.857902 61.989552 14.191550 176.589028 -52.544654 0.289438 3.542606 27.521197 0.545877 0.547814 4.739696 0.101121 0.872594 7.496438 0.181342 2.747764 22.125872 0.908312 -0.016107 16.915575 2.883866 -1.019883 -4.330985 5.341482 5.439483 5.518721 5.200124 0.934440 -12.875599 -13.887212 -137.373674 -57.720527 167.646533 20.808647 -0.388559 -23.884741 -9.854886 1.460022 -0.993856 -8.573304 -10.380006 19.475106 132.678513 -68.243383 -159.800858 5.300391 -7.346640 24.257338 4.278768 -14.164365 -7.148814 3.888219 60.962460 -0.580072 1.223428 -5.928548 11.403767 0.068153 0.087131 -0.054879 0.128085 -4.823155 6.544184 127.883425 83.768439 136.828731 -5.919562 -12.465843 -11.275386 0.040353 -24.969354 0.219409
-48.851561 61.993025 14.181244 176.602484 -52.531923 0.284433 3.546691 27.504315 0.558813 0.538095 4.737176 0.095148 0.873503 7.494200 0.180068 2.750601 22.122973 0.904834 -0.021404 16.906886 2.879445 -1.033986 -4.372465 5.323765 5.447971 5.527832 5.187712 0.911073 -12.875924 -13.852859 -137.385605 -57.720789 167.653784 20.811974 -0.387805 -23.876401 -9.853467 1.467452 -0.997896 -8.575564 -10.386854 19.472947 132.651380 -68.246812 -159.770080 5.295675 -7.339629 24.258923 4.212434 -14.180036 -7.152185 3.952041 60.990759 -0.548706 1.215543 -6.057751 11.423214 0.068051 0.099601 -0.065059 0.120052 -4.830359 6.552108 127.944069 83.769154 136.874858 -5.916074 -12.470327 -11.258305 0.035573 -24.972160 0.210593
-48.846697 61.997135 14.170468 176.622369 -52.523080 0.279061 3.537837 27.496850 0.554706 0.542621 4.734684 0.097000 0.874279 7.490757 0.179515 2.765961 22.112722 0.903333 -0.039994 16.904022 2.880725 -1.050373 -4.392579 5.320922 5.426478 5.540408 5.193803 0.899538 -12.876883 -13.836988 -137.382497 -57.704608 167.646692 20.815489 -0.378291 -23.866389 -9.874723 1.481994 -0.994841 -8.575454 -10.398774 19.470653 132.627234 -68.257577 -159.753439 5.293294 -7.335318 24.272016 4.161952 -14.194546 -7.169088 3.980152 61.026866 -0.526439 1.220079 -6.173003 11.430066 0.071765 0.109708 -0.070763 0.110196 -4.832444 6.550357 127.957690 83.770937 136.881060 -5.915656 -12.473034 -11.251871 0.032549 -24.974697 0.209285
-48.841827 62.000462 14.160354 176.633617 -52.508085 0.276901 3.536114 27.481961 0.554198 0.548537 4.733232 0.099369 0.878517 7.485547 0.178583 2.761210 22.112718 0.902387 -0.047870 16.878629 2.869257 -1.070759 -4.413204 5.320595 5.419218 5.543913 5.194198 0.888502 -12.878710 -13.820350 -137.379449 -57.702754 167.651163 20.802283 -0.383860 -23.872738 -9.886294 1.489288 -0.992784 -8.573523 -10.403022 19.469712 132.606682 -68.261490 -159.719695 5.288128 -7.329930 24.266088 4.125584 -14.214486 -7.177507 4.009039 61.062148 -0.508361 1.218360 -6.290931 11.448267 0.068512 0.157778 -0.091112 0.108479 -4.838629 6.554808 127.960119 83.774702 136.876771 -5.916062 -12.488967 -11.246000 0.028474 -24.965274 0.210880
-48.836676 62.005014 14.149394 176.635501 -52.502294 0.278220 3.538110 27.475919 0.554676 0.547100 4.733084 0.099245 0.884542 7.481851 0.177537 2.763504 22.111688 0.902113 -0.055301 16.856708 2.860613 -1.084621 -4.422035 5.323037 5.417595 5.544089 5.193953 0.876362 -12.874952 -13.783041 -137.407301 -57.717318 167.688430 20.803170 -0.382243 -23.872835 -9.889369 1.491868 -0.992252 -8.552496 -10.414324 19.465286 132.565781 -68.275977 -159.669585 5.289892 -7.327863 24.238891 4.102280 -14.223443 -7.184955 4.031274 61.096156 -0.485285 1.218828 -6.408655 11.461893 0.072364 0.147561 -0.087116 0.114869 -4.832282 6.571465 127.997174 83.786829 136.907182 -5.932752 -12.510096 -11.239842 0.034665 -24.954273 0.220842
-48.832743 62.008832 14.138975 176.645815 -52.491996 0.278074 3.530930 27.465614 0.546846 0.551329 4.731316 0.099023 0.882774 7.480363 0.177124 2.761995 22.113633 0.902928 -0.059058 16.846861 2.855856 -1.104578 -4.466829 5.310398 5.417907 5.543185 5.193961 0.878256 -12.871258 -13.768694 -137.421009 -57.721618 167.698461 20.798135 -0.388401 -23.881909 -9.884360 1.491451 -0.995239 -8.542212 -10.420339 19.464771 132.540932 -68.281893 -159.655878 5.285650 -7.319609 24.245198 4.090781 -14.234757 -7.198765 4.037859 61.130956 -0.468347 1.216832 -6.529104 11.475723 0.072002 0.176208 -0.093125 0.110572 -4.835893 6.568380 128.002230 83.789281 136.909454 -5.934112 -12.509496 -11.239514 0.038796 -24.960147 0.220898
-48.828191 62.012578 14.128705 176.652537 -52.482799 0.275863 3.528240 27.455714 0.545791 0.555751 4.729370 0.101006 0.876920 7.481592 0.173847 2.768650 22.108534 0.897581 -0.066931 16.841601 2.857942 -1.131265 -4.531358 5.289793 5.414445 5.546673 5.201773 0.883995 -12.868170 -13.759262 -137.403520 -57.713702 167.680553 20.807499 -0.381686 -23.888001 -9.887728 1.503552 -0.991966 -8.533035 -10.426502 19.465713 132.525360 -68.285015 -159.647907 5.280504 -7.309936 24.255340 4.056243 -14.247199 -7.203606 4.071597 61.163467 -0.443145 1.216078 -6.652380 11.480837 0.073652 0.166062 -0.081288 0.106733 -4.838525 6.571344 128.019375 83.788247 136.919135 -5.930899 -12.513509 -11.230688 0.039614 -24.963484 0.213181
